<?xml version="1.0" encoding="UTF-8"?>
<svg id="Layer_1" xmlns="http://www.w3.org/2000/svg" version="1.1" viewBox="0 0 128 128">
  <!-- Generator: Adobe Illustrator 30.3.0, SVG Export Plug-In . SVG Version: 2.1.3 Build 182)  -->
  <defs>
    <style>
      .st0 {
        fill: #231f20;
      }

      .st1 {
        fill: #fff;
      }
    </style>
  </defs>
  <circle class="st1" cx="64" cy="63.99" r="60.24"/>
  <path class="st0" d="M64,127.97C28.72,127.97,0,99.27,0,63.99S28.72,0,64,0s64,28.72,64,64c0,7.6-1.32,15.06-3.92,22.12-.72,1.96-2.88,2.94-4.84,2.24-1.96-.72-2.96-2.88-2.24-4.84,2.3-6.24,3.46-12.8,3.46-19.52,0-31.14-25.34-56.48-56.46-56.48S7.52,32.85,7.52,63.99s25.34,56.48,56.48,56.48c12.48,0,24.3-3.98,34.2-11.52,1.66-1.26,4.02-.94,5.28.72s.94,4.02-.72,5.28c-11.22,8.54-24.62,13.06-38.76,13.06h0v-.04Z"/>
</svg>