<?xml version="1.0" encoding="UTF-8"?>
<svg id="Layer_1" xmlns="http://www.w3.org/2000/svg" version="1.1" viewBox="0 0 64 128">
  <!-- Generator: Adobe Illustrator 30.3.0, SVG Export Plug-In . SVG Version: 2.1.3 Build 182)  -->
  <defs>
    <style>
      .st0 {
        fill: lime;
      }

      .st1 {
        fill: #347125;
      }
    </style>
  </defs>
  <polygon class="st1" points="31.72 124.3 60.16 88.56 31.72 3.84 3.28 88.56 31.72 124.3"/>
  <path class="st0" d="M31.72,128.06c-1.06,0-2.04-.48-2.72-1.34L.56,90.98c-.82-1.02-1.06-2.42-.62-3.68l8.46-25.22c.66-1.96,2.68-2.98,4.54-2.28s2.82,2.84,2.16,4.8l-7.78,23.18,24.4,30.68,24.4-30.68L31.72,15.08l-3.08,9.16c-.66,1.96-2.68,2.98-4.54,2.28-1.86-.7-2.82-2.84-2.16-4.8L28.38,2.58c.52-1.5,1.86-2.5,3.34-2.5s2.86,1,3.34,2.5l28.44,84.74c.42,1.26.18,2.66-.62,3.68l-28.44,35.74c-.68.84-1.66,1.34-2.72,1.34h0v-.02Z"/>
</svg>