<?xml version="1.0" encoding="UTF-8"?>
<svg id="Layer_1" xmlns="http://www.w3.org/2000/svg" version="1.1" viewBox="0 0 64 64">
  <!-- Generator: Adobe Illustrator 30.3.0, SVG Export Plug-In . SVG Version: 2.1.3 Build 182)  -->
  <defs>
    <style>
      .st0 {
        fill: none;
      }

      .st1 {
        fill: #231f20;
      }

      .st2 {
        fill: #fff;
      }
    </style>
  </defs>
  <g>
    <g>
      <g>
        <rect class="st1" x="1.14" y="29.03" width="18.44" height="14.88" rx="7.44" ry="7.44"/>
        <path class="st2" d="M12.13,45.05h-3.56C3.85,45.05,0,41.2,0,36.48c0-1.32.29-2.59.87-3.76.28-.56.96-.8,1.52-.52.56.28.8.96.52,1.52-.42.86-.64,1.79-.64,2.77,0,3.48,2.83,6.31,6.31,6.31h3.56c3.48,0,6.31-2.83,6.31-6.31s-2.83-6.31-6.31-6.31h-3.56c-.63,0-1.14-.51-1.14-1.14s.51-1.14,1.14-1.14h3.56c4.73,0,8.58,3.85,8.58,8.58s-3.85,8.58-8.58,8.58Z"/>
      </g>
      <g>
        <rect class="st1" x="44.42" y="29.03" width="18.44" height="14.88" rx="7.44" ry="7.44" transform="translate(107.29 72.95) rotate(180)"/>
        <path class="st2" d="M55.42,45.05h-3.56c-4.73,0-8.58-3.85-8.58-8.58s3.85-8.58,8.58-8.58h3.56c4.73,0,8.58,3.85,8.58,8.58,0,3.59-2.27,6.83-5.64,8.06-.59.21-1.24-.09-1.46-.68-.21-.59.09-1.24.68-1.46,2.48-.9,4.15-3.29,4.15-5.93,0-3.48-2.83-6.31-6.31-6.31h-3.56c-3.48,0-6.31,2.83-6.31,6.31s2.83,6.31,6.31,6.31h3.56c.63,0,1.14.51,1.14,1.14s-.51,1.14-1.14,1.14Z"/>
      </g>
    </g>
    <g>
      <rect class="st1" x="6.57" y="11.47" width="50.87" height="41.06" rx="20.53" ry="20.53"/>
      <path class="st2" d="M36.91,53.67h-9.81c-11.95,0-21.66-9.72-21.66-21.67S15.15,10.34,27.09,10.34h9.81c5.73,0,11.14,2.22,15.21,6.24.45.44.45,1.16.01,1.61-.44.45-1.16.45-1.61.01-3.65-3.6-8.49-5.59-13.62-5.59h-9.81c-10.69,0-19.39,8.7-19.39,19.39s8.7,19.39,19.39,19.39h9.81c10.69,0,19.39-8.7,19.39-19.39,0-2.89-.62-5.67-1.84-8.26-.27-.57-.02-1.24.54-1.51.57-.27,1.24-.02,1.51.54,1.36,2.9,2.06,6,2.06,9.23,0,11.95-9.72,21.67-21.66,21.67Z"/>
    </g>
    <g>
      <path class="st0" d="M42.21,30.58h-7.26c-.38.74-.6,1.58-.6,2.46,0,2.96,2.44,5.4,5.4,5.4,1.43,0,2.81-.57,3.82-1.58l-3.82-3.82,2.46-2.46Z"/>
      <path class="st0" d="M25.5,30.58h-7.26c-.38.74-.6,1.58-.6,2.46,0,2.96,2.44,5.4,5.4,5.4,1.43,0,2.81-.57,3.82-1.58l-3.82-3.82,2.46-2.46Z"/>
    </g>
  </g>
  <g>
    <path class="st2" d="M42.21,30.58h-7.26c-.38.74-.6,1.58-.6,2.46,0,2.96,2.44,5.4,5.4,5.4,1.43,0,2.81-.57,3.82-1.58l-3.82-3.82,2.46-2.46Z"/>
    <path class="st2" d="M25.5,30.58h-7.26c-.38.74-.6,1.58-.6,2.46,0,2.96,2.44,5.4,5.4,5.4,1.43,0,2.81-.57,3.82-1.58l-3.82-3.82,2.46-2.46Z"/>
  </g>
</svg>