<?xml version="1.0" encoding="UTF-8"?>
<svg id="Layer_1" xmlns="http://www.w3.org/2000/svg" version="1.1" viewBox="0 0 32 32">
  <!-- Generator: Adobe Illustrator 30.3.0, SVG Export Plug-In . SVG Version: 2.1.3 Build 182)  -->
  <defs>
    <style>
      .st0 {
        fill: #f0f;
      }

      .st1 {
        fill: #6f285e;
      }
    </style>
  </defs>
  <polyline class="st1" points="31.06 14.58 31.06 31.06 .94 31.06 .94 .94 31.06 .94 31.06 9.01"/>
  <path class="st0" d="M31.06,32H.94c-.52,0-.94-.42-.94-.94V.94C0,.42.42,0,.94,0h30.12c.52,0,.94.42.94.94v8.07c0,.52-.42.94-.94.94s-.94-.42-.94-.94V1.88H1.88v28.24h28.24v-15.54c0-.52.42-.94.94-.94s.94.42.94.94v16.48c0,.52-.42.94-.94.94Z"/>
</svg>