<?xml version="1.0" encoding="UTF-8"?>
<svg id="Layer_1" xmlns="http://www.w3.org/2000/svg" version="1.1" viewBox="0 0 128 32">
  <!-- Generator: Adobe Illustrator 30.3.0, SVG Export Plug-In . SVG Version: 2.1.3 Build 182)  -->
  <defs>
    <style>
      .st0 {
        fill: #231f20;
      }

      .st1 {
        fill: #fff;
      }
    </style>
  </defs>
  <polyline class="st0" points="76.64 31.06 .98 31.06 .98 .94 127.02 .94 127.02 31.06 111.46 31.06"/>
  <path class="st1" d="M127.02,32h-15.56c-.54,0-.98-.42-.98-.94s.44-.94.98-.94h14.57V1.88H1.97v28.24h74.67c.54,0,.98.42.98.94s-.44.94-.98.94H.98c-.54,0-.98-.42-.98-.94V.94C0,.42.44,0,.98,0h126.03c.54,0,.98.42.98.94v30.12c0,.52-.44.94-.98.94Z"/>
</svg>