<?xml version="1.0" encoding="UTF-8"?>
<svg id="Layer_1" xmlns="http://www.w3.org/2000/svg" version="1.1" viewBox="0 0 64 64">
  <!-- Generator: Adobe Illustrator 30.3.0, SVG Export Plug-In . SVG Version: 2.1.3 Build 182)  -->
  <defs>
    <style>
      .st0 {
        fill: #0a1644;
      }

      .st1 {
        fill: #0909ff;
      }
    </style>
  </defs>
  <path class="st0" d="M51.25,35.52v.15l11.45,3.52-11.45,4.71v.15l11.45,3.52-7.32,3.01c-2.73,1.12-8.63,5.29-8.63,5.29h-20.35c-1.9,0-3.74-.63-5.23-1.79-1.49-1.17-3.34-1.8-5.23-1.8H1.3v-5.58c0-1.06.18-2.09.54-3.03h0s.02-.06.03-.08c.87-2.32,2.7-4.18,5.01-5.08,1.01-.4,2.09-.62,3.24-.62h4.47v-11.37c0-2.1.85-4,2.22-5.38,1.38-1.37,3.29-2.22,5.38-2.22l4.09-10.78,3.13,10.78h7.77l4.09-10.78,3.53,10.78c4.28,0,8.54.64,12.64,1.9l5.27,1.62-11.45,4.71v.15l11.45,3.52-11.45,4.71Z"/>
  <g>
    <g>
      <path class="st1" d="M28.38,29.39l-4.57-1.52c-.75.79-1.22,1.86-1.22,3.04,0,2.41,1.94,4.39,4.3,4.39,1.14,0,2.23-.46,3.04-1.29l-3.04-3.11,1.49-1.52Z"/>
      <path class="st1" d="M43,27.61l-6.98,2.3c-.07.32-.12.65-.12,1,0,2.41,1.94,4.39,4.3,4.39,1.14,0,2.23-.46,3.04-1.29l-3.04-3.11,3.04-3.11c-.07-.07-.15-.13-.23-.19Z"/>
    </g>
    <path class="st1" d="M32.91,48.44H1.3v-1.74c0-1.06.18-2.09.54-3.03h0s.02-.06.03-.08h26.2c2.69,0,4.85,2.18,4.85,4.85Z"/>
    <polyline class="st0" points="25.53 48.44 23.59 46.01 21.6 48.44"/>
    <polyline class="st0" points="21.84 48.44 19.9 46.01 17.91 48.44"/>
    <polyline class="st0" points="18.15 48.44 16.21 46.01 14.21 48.44"/>
    <polyline class="st0" points="14.46 48.44 12.52 46.01 10.52 48.44"/>
    <polyline class="st0" points="8.92 48.44 6.98 46.01 4.99 48.44"/>
    <polyline class="st0" points="6.15 48.44 4.22 46.01 2.22 48.44"/>
    <polyline class="st0" points="11.69 48.44 9.75 46.01 7.75 48.44"/>
    <path class="st1" d="M7.76,40.86c0,2-1.62,3.63-3.63,3.63-.88,0-1.67-.3-2.3-.82h0c.86-2.36,2.7-4.25,5.04-5.17.55.63.89,1.46.89,2.36Z"/>
    <g>
      <path class="st1" d="M7.76,40.86c0,2-1.62,3.63-3.63,3.63-.88,0-1.67-.3-2.3-.82"/>
      <path class="st0" d="M7.76,40.86c.86,3.27-3.95,5.55-5.92,2.81,2.43,1.2,5.3-.17,5.92-2.81h0Z"/>
    </g>
    <path class="st1" d="M46.76,57.17c-.41,0-.81-.19-1.06-.55-.41-.59-.28-1.4.31-1.81.25-.17,6.05-4.27,8.89-5.43l3.96-1.63-7.99-2.46c-.55-.17-.92-.67-.92-1.24v-.15c0-.53.32-1,.81-1.2l8.1-3.33-7.99-2.46c-.55-.17-.92-.67-.92-1.24v-.15c0-.53.32-1,.81-1.2l8.1-3.33-7.99-2.46c-.55-.17-.92-.67-.92-1.24v-.15c0-.53.32-1,.81-1.2l8.1-3.33-1.81-.56c-3.96-1.22-8.09-1.84-12.26-1.84-.56,0-1.06-.36-1.24-.89l-2.39-7.28-2.78,7.34c-.19.51-.68.84-1.22.84h-7.77c-.58,0-1.09-.38-1.25-.94l-2.04-7.04-2.71,7.14c-.19.51-.68.84-1.22.84-1.68,0-3.27.66-4.46,1.85-1.19,1.18-1.84,2.77-1.84,4.46v11.37c0,.72-.58,1.3-1.3,1.3h-4.47c-.95,0-1.87.18-2.76.53-.67.27-1.42-.06-1.69-.73-.26-.67.06-1.42.73-1.69,1.19-.47,2.44-.71,3.72-.71h3.17v-10.07c0-2.38.93-4.62,2.6-6.3,1.47-1.46,3.36-2.35,5.38-2.56l3.79-9.98c.2-.52.71-.85,1.27-.84.56.02,1.04.4,1.2.94l2.86,9.84h5.9l3.77-9.94c.19-.51.66-.88,1.25-.84.55.01,1.03.37,1.21.89l3.24,9.89c4.11.09,8.17.74,12.08,1.95l5.27,1.62c.52.16.89.63.92,1.18.02.55-.3,1.05-.8,1.26l-8.3,3.41,8.19,2.52c.52.16.89.63.92,1.18.02.55-.3,1.05-.8,1.26l-8.3,3.41,8.19,2.52c.52.16.89.63.92,1.18.02.55-.3,1.05-.8,1.26l-8.3,3.41,8.19,2.52c.52.16.89.63.92,1.18.02.55-.3,1.05-.8,1.26l-7.32,3.01c-2.56,1.05-8.31,5.11-8.37,5.15-.23.16-.49.24-.75.24Z"/>
    <path class="st1" d="M26.41,57.17c-2.18,0-4.32-.73-6.03-2.06-1.26-.98-2.83-1.53-4.43-1.53H1.3c-.72,0-1.3-.58-1.3-1.3v-5.58c0-1.18.2-2.32.59-3.4,0-.01,0-.02,0-.03,0-.03.03-.1.05-.13.26-.65,1-1,1.66-.76.66.24,1.02.94.8,1.61h0s-.03.09-.04.14c-.3.81-.45,1.67-.45,2.57v4.28h13.34c2.18,0,4.33.74,6.03,2.08,1.25.97,2.83,1.51,4.43,1.51.72,0,1.3.58,1.3,1.3s-.58,1.3-1.3,1.3Z"/>
  </g>
</svg>