<?xml version="1.0" encoding="UTF-8"?>
<svg id="Layer_1" xmlns="http://www.w3.org/2000/svg" xmlns:xlink="http://www.w3.org/1999/xlink" version="1.1" viewBox="0 0 256 64">
  <!-- Generator: Adobe Illustrator 30.3.0, SVG Export Plug-In . SVG Version: 2.1.3 Build 182)  -->
  <defs>
    <style>
      .st0 {
        fill: url(#linear-gradient1);
      }

      .st1 {
        fill: url(#linear-gradient);
      }
    </style>
    <linearGradient id="linear-gradient" x1="-306.5" y1="32.02" x2="221.91" y2="32.02" gradientUnits="userSpaceOnUse">
      <stop offset="0" stop-color="#ff7e3b"/>
      <stop offset=".04" stop-color="#fe632c"/>
      <stop offset=".1" stop-color="#fd491e"/>
      <stop offset=".16" stop-color="#fd3614"/>
      <stop offset=".22" stop-color="#fd2a0e"/>
      <stop offset=".28" stop-color="#fd270c"/>
      <stop offset=".67" stop-color="#f33fbe"/>
      <stop offset=".89" stop-color="#cb3ced"/>
      <stop offset="1" stop-color="#7f3ae9"/>
    </linearGradient>
    <linearGradient id="linear-gradient1" x1="247.3" y1="20.41" x2="247.3" y2="20.41" xlink:href="#linear-gradient"/>
  </defs>
  <path class="st1" d="M85.51,64c-22.3,0-45.48-6.13-67.98-18.37-5.37-2.92-11.96-.73-18.17-.73v-3.73s0-33.37,0-33.37v-2.89c14,0,28.14,6.31,40.03,12.78,8.46,4.6,21.74,10.48,36.97,12.35,17.1,2.09,32.41-1.31,46.81-10.42C171-10.64,208.96.81,227.33,10.33c8.57,4.44,18.15,6.79,27.69,6.79h.98v33.37h-.98c-17,0-33.88-4.08-48.79-11.81-17.15-8.88-36.96-6.35-58.91,7.52-18.77,11.87-39.87,17.8-61.81,17.8Z"/>
  <path class="st0" d="M247.3,20.41"/>
</svg>