<?xml version="1.0" encoding="UTF-8"?>
<svg id="Layer_1" xmlns="http://www.w3.org/2000/svg" xmlns:xlink="http://www.w3.org/1999/xlink" version="1.1" viewBox="0 0 256 64">
  <!-- Generator: Adobe Illustrator 30.3.0, SVG Export Plug-In . SVG Version: 2.1.3 Build 182)  -->
  <defs>
    <style>
      .st0 {
        fill: url(#linear-gradient);
      }
    </style>
    <linearGradient id="linear-gradient" x1="-49.53" y1="32" x2="478.88" y2="32" gradientUnits="userSpaceOnUse">
      <stop offset="0" stop-color="#ff7e3b"/>
      <stop offset=".04" stop-color="#fe632c"/>
      <stop offset=".1" stop-color="#fd491e"/>
      <stop offset=".16" stop-color="#fd3614"/>
      <stop offset=".22" stop-color="#fd2a0e"/>
      <stop offset=".28" stop-color="#fd270c"/>
      <stop offset=".67" stop-color="#f33fbe"/>
      <stop offset=".89" stop-color="#cb3ced"/>
      <stop offset="1" stop-color="#7f3ae9"/>
    </linearGradient>
  </defs>
  <path class="st0" d="M-.32,19.55l16.78-.37c5.56-.08,11.12-.21,16.68-.21,11.13-.12,22.27,0,33.47.34,11.2.41,22.45,1.13,33.9,2.69,5.73.85,11.52,1.87,17.46,3.58,1.49.43,2.99.96,4.49,1.44l4.39,1.73c2.22.91,4.49,1.71,6.79,2.39,4.61,1.36,9.38,2.19,14.18,2.59,2.44.22,4.65.21,7.61.29l8.24.21c10.83.18,21.36.13,30.74-1.61,4.66-.86,9.01-2.04,12.6-3.75,3.6-1.72,6.39-3.81,8.36-6.16.02-.03.22-.23.38-.39l.5-.49,1-.97,2.09-1.87,2.18-1.79c.75-.57,1.51-1.14,2.28-1.7,3.1-2.21,6.45-4.12,9.99-5.79,3.54-1.66,7.3-2.99,11.2-3.95,1.95-.5,3.94-.89,5.95-1.19,1.01-.17,2.02-.26,3.04-.37l.76-.08.54-.07,1.03-.14v40l-1.03-.14-.49-.07-.27-.06c-.35-.07-.71-.17-1.08-.21-.73-.12-1.47-.21-2.23-.24-1.51-.06-3.08.05-4.68.33-1.61.26-3.21.78-4.81,1.42l-1.19.52-1.18.59-1.17.65-.57.35-.29.18c-.1.06-.16.09-.41.27-6.33,4.9-13.47,7.99-20.26,9.79-6.82,1.84-13.37,2.56-19.64,2.75-12.53.3-24.04-1.09-35.11-2.53l-8.19-1.06c-2.52-.32-5.79-.71-8.8-1.24-6.09-1.05-12.08-2.73-17.86-4.94-2.89-1.11-5.73-2.36-8.49-3.76l-3.17-1.56c-1.09-.43-2.15-.88-3.28-1.3-4.54-1.63-9.52-2.93-14.62-3.92-5.11-1.01-10.36-1.78-15.66-2.38-5.29-.64-10.65-1.03-16.03-1.34-10.75-.67-21.6-.75-32.45-.56-5.42.16-10.85.32-16.27.66-2.71.17-5.42.35-8.12.56-2.68.24-5.43,2.42-8.02,2.74L-.32,19.55Z"/>
</svg>