<?xml version="1.0" encoding="UTF-8"?>
<svg id="Layer_1" xmlns="http://www.w3.org/2000/svg" xmlns:xlink="http://www.w3.org/1999/xlink" version="1.1" viewBox="0 0 128 32">
  <!-- Generator: Adobe Illustrator 30.3.0, SVG Export Plug-In . SVG Version: 2.1.3 Build 182)  -->
  <defs>
    <style>
      .st0 {
        fill: url(#linear-gradient);
      }
    </style>
    <linearGradient id="linear-gradient" x1="77.08" y1="16" x2="605.49" y2="16" gradientUnits="userSpaceOnUse">
      <stop offset="0" stop-color="#ff7e3b"/>
      <stop offset=".04" stop-color="#fe632c"/>
      <stop offset=".1" stop-color="#fd491e"/>
      <stop offset=".16" stop-color="#fd3614"/>
      <stop offset=".22" stop-color="#fd2a0e"/>
      <stop offset=".28" stop-color="#fd270c"/>
      <stop offset=".67" stop-color="#f33fbe"/>
      <stop offset=".89" stop-color="#cb3ced"/>
      <stop offset="1" stop-color="#7f3ae9"/>
    </linearGradient>
  </defs>
  <path class="st0" d="M128,4.41l-5.81.44s-1.59.12-1.59.12c-2.84.07-4.64,2.59-7.1,3.81-7.4,3.7-16.39,2.82-24.5.93-3.85-.95-7.73-2.18-11.36-3.82-3.93-1.14-7.61-1.36-11.13-1.33-10.13.27-19.8,2.67-29.39,5.53C24.76,13.87,12.77,18.58,1.07,23.95c12.25-3.51,24.76-6.34,37.33-8.17,9.08-1.26,18.52-2.17,27.57-1.03,2.51.35,4.91.92,6.89,1.75.27.16,1.48.9,1.48.9,13.62,7.76,30.01,13.21,45.76,8.34,2.58-.86,5.11.11,7.51-1.32l-5.42-.44,5.81.44V4.41Z"/>
</svg>