<?xml version="1.0" encoding="UTF-8"?>
<svg id="Layer_1" xmlns="http://www.w3.org/2000/svg" version="1.1" viewBox="0 0 64 64">
  <!-- Generator: Adobe Illustrator 30.3.0, SVG Export Plug-In . SVG Version: 2.1.3 Build 182)  -->
  <defs>
    <style>
      .st0 {
        fill: red;
      }

      .st1 {
        fill: #8b0704;
      }
    </style>
  </defs>
  <g>
    <g>
      <path class="st1" d="M54.27,8.48c4.7,0,8.51,3.81,8.51,8.51s-3.81,8.51-8.51,8.51-8.51-3.81-8.51-8.51l8.51-8.51Z"/>
      <path class="st1" d="M9.73,8.48c-4.7,0-8.51,3.81-8.51,8.51s3.81,8.51,8.51,8.51,8.51-3.81,8.51-8.51l-8.51-8.51Z"/>
    </g>
    <path class="st0" d="M54.27,26.72c-5.36,0-9.73-4.36-9.73-9.73,0-.32.13-.63.36-.86l8.51-8.51c.23-.23.54-.36.86-.36,5.36,0,9.73,4.36,9.73,9.73,0,.67-.55,1.22-1.22,1.22s-1.22-.55-1.22-1.22c0-3.85-3.01-7.02-6.8-7.27l-7.76,7.76c.25,3.79,3.42,6.8,7.27,6.8.67,0,1.22.55,1.22,1.22s-.55,1.22-1.22,1.22Z"/>
    <path class="st0" d="M9.73,26.72c-5.36,0-9.73-4.36-9.73-9.73,0-.67.55-1.22,1.22-1.22s1.22.55,1.22,1.22c0,4.02,3.27,7.29,7.29,7.29s7.02-3.01,7.27-6.8l-8.13-8.13c-.48-.48-.48-1.25,0-1.73s1.25-.48,1.73,0l8.51,8.51c.23.23.36.54.36.86,0,5.36-4.36,9.73-9.73,9.73Z"/>
  </g>
  <g>
    <rect class="st1" x="3.58" y="11.38" width="53.52" height="44.14" rx="21.83" ry="21.83"/>
    <path class="st0" d="M20.91,34.57l4.02,4.11c-1.07,1.09-2.51,1.7-4.02,1.7-3.12,0-5.69-2.62-5.69-5.81s2.57-5.81,5.69-5.81c1.51,0,2.95.61,4.02,1.7l-4.02,4.11ZM42.52,30.46c-1.07-1.09-2.51-1.7-4.02-1.7-3.12,0-5.69,2.62-5.69,5.81s2.57,5.81,5.69,5.81c1.51,0,2.95-.61,4.02-1.7l-4.02-4.11,4.02-4.11Z"/>
    <rect class="st1" x="12.17" y="24.11" width="33.64" height="7.81"/>
  </g>
  <path class="st0" d="M36.22,47.71c-1.68,0-3.9-.68-6.73-2.05-4.81,2.32-7.83,2.66-9.5,1.07-2.2-2.09-.4-6.36-.19-6.84.27-.62.99-.89,1.61-.62.62.27.9.99.63,1.61-.57,1.31-1.02,3.46-.36,4.09.22.21,1.59,1.09,7.27-1.75.34-.17.75-.17,1.09,0,5.69,2.84,7.05,1.96,7.27,1.75.66-.63.22-2.78-.36-4.09-.27-.62.01-1.34.63-1.61.61-.27,1.33,0,1.61.62.21.48,2,4.75-.19,6.84-.68.65-1.6.98-2.77.98Z"/>
  <path class="st0" d="M29.12,53.25c-3.98,0-7.4-2.7-8.31-6.57-.09-.41.02-.83.31-1.13.29-.3.72-.43,1.12-.35.72.15,2.54.08,6.69-2,.34-.17.75-.17,1.09,0,3.4,1.7,5.24,2.02,6.18,2.04.38.04.74.17.97.46s.32.68.23,1.05c-.95,3.82-4.36,6.48-8.29,6.48ZM23.76,47.63c1.04,1.93,3.07,3.18,5.36,3.18s4.39-1.3,5.42-3.29c-1.4-.28-3.07-.9-5.05-1.85-2.3,1.11-4.2,1.76-5.73,1.96Z"/>
  <circle class="st0" cx="28.99" cy="40.99" r="3.32"/>
  <path class="st0" d="M25.67,33.15h-12.26c-.67,0-1.22-.55-1.22-1.22s.55-1.22,1.22-1.22h12.26c.67,0,1.22.55,1.22,1.22s-.55,1.22-1.22,1.22Z"/>
  <path class="st0" d="M43.8,33.15h-12.26c-.67,0-1.22-.55-1.22-1.22s.55-1.22,1.22-1.22h12.26c.67,0,1.22.55,1.22,1.22s-.55,1.22-1.22,1.22Z"/>
  <path class="st0" d="M10.93,34.9H3.58c-.67,0-1.22-.55-1.22-1.22s.55-1.22,1.22-1.22h7.34c.67,0,1.22.55,1.22,1.22s-.55,1.22-1.22,1.22Z"/>
  <path class="st0" d="M12.17,46.79h-4.92c-.67,0-1.22-.55-1.22-1.22s.55-1.22,1.22-1.22h4.92c.67,0,1.22.55,1.22,1.22s-.55,1.22-1.22,1.22Z"/>
  <path class="st0" d="M55.39,34.9h-7.34c-.67,0-1.22-.55-1.22-1.22s.55-1.22,1.22-1.22h7.34c.67,0,1.22.55,1.22,1.22s-.55,1.22-1.22,1.22Z"/>
  <path class="st0" d="M14.42,41.6H4.63c-.67,0-1.22-.55-1.22-1.22s.55-1.22,1.22-1.22h9.79c.67,0,1.22.55,1.22,1.22s-.55,1.22-1.22,1.22Z"/>
  <path class="st0" d="M51.73,46.79h-4.92c-.67,0-1.22-.55-1.22-1.22s.55-1.22,1.22-1.22h4.92c.67,0,1.22.55,1.22,1.22s-.55,1.22-1.22,1.22Z"/>
  <path class="st0" d="M54.35,41.6h-9.79c-.67,0-1.22-.55-1.22-1.22s.55-1.22,1.22-1.22h9.79c.67,0,1.22.55,1.22,1.22s-.55,1.22-1.22,1.22Z"/>
  <path class="st0" d="M29.12,23.82c-.67,0-1.22-.55-1.22-1.22v-11.22c0-.67.55-1.22,1.22-1.22s1.22.55,1.22,1.22v11.22c0,.67-.55,1.22-1.22,1.22Z"/>
  <path class="st0" d="M38.85,23.82h-18.35c-.67,0-1.22-.55-1.22-1.22s.55-1.22,1.22-1.22h18.35c.67,0,1.22.55,1.22,1.22s-.55,1.22-1.22,1.22Z"/>
  <path class="st0" d="M36.43,18.21h-13.5c-.67,0-1.22-.55-1.22-1.22s.55-1.22,1.22-1.22h13.5c.67,0,1.22.55,1.22,1.22s-.55,1.22-1.22,1.22Z"/>
  <path class="st0" d="M35.27,56.74c-.67,0-1.22-.55-1.22-1.22s.55-1.22,1.22-1.22c11.37,0,20.61-9.25,20.61-20.61v-.47c0-11.37-9.25-20.61-20.61-20.61h-9.85c-11.37,0-20.61,9.25-20.61,20.61v.47c0,11.37,9.25,20.61,20.61,20.61.67,0,1.22.55,1.22,1.22s-.55,1.22-1.22,1.22c-12.71,0-23.05-10.34-23.05-23.05v-.47c0-12.71,10.34-23.05,23.05-23.05h9.85c12.71,0,23.05,10.34,23.05,23.05v.47c0,12.71-10.34,23.05-23.05,23.05Z"/>
</svg>