<?xml version="1.0" encoding="UTF-8"?>
<svg id="Layer_1" xmlns="http://www.w3.org/2000/svg" version="1.1" viewBox="0 0 64 64">
  <!-- Generator: Adobe Illustrator 30.3.0, SVG Export Plug-In . SVG Version: 2.1.3 Build 182)  -->
  <defs>
    <style>
      .st0 {
        fill: #3e7a85;
      }

      .st1 {
        fill: aqua;
      }
    </style>
  </defs>
  <g>
    <path class="st0" d="M56.9,52.27H21.92c-5.07,0-9.31-3.85-9.79-8.9l-.78-8.15-5.46-8.84L1.18,15.49c0-.14,32.66-3.64,32.66-3.64,13.38-1.4,25.37,8.3,26.81,21.67l2.07,11.81c.64,3.62-2.15,6.94-5.83,6.94Z"/>
    <path class="st1" d="M56.9,53.45H21.93c-5.71,0-10.42-4.29-10.96-9.97l-.75-7.87-5.31-8.61s-.06-.1-.08-.15L.1,15.96c-.26-.6.01-1.29.61-1.55.6-.26,1.29.02,1.55.61l4.69,10.81,5.41,8.77c.1.15.15.33.17.51l.78,8.15c.42,4.47,4.13,7.83,8.61,7.83h34.97c1.4,0,2.72-.62,3.63-1.69s1.28-2.48,1.04-3.87c-.11-.64.32-1.25.96-1.37.64-.11,1.25.32,1.37.96.36,2.07-.2,4.18-1.55,5.79s-3.33,2.53-5.44,2.53Z"/>
    <path class="st1" d="M60.65,34.71c-.6,0-1.11-.45-1.17-1.05-1.37-12.7-12.79-21.95-25.52-20.63-.65.06-1.23-.4-1.3-1.05-.07-.65.4-1.23,1.05-1.3,13.99-1.46,26.6,8.73,28.11,22.72.07.65-.4,1.23-1.05,1.3-.04,0-.09,0-.13,0Z"/>
  </g>
  <path class="st1" d="M20.24,23.48l-3.37-5.59-1.05-1.75-1.05-1.74-.26-.43s0-.01-.01-.01c-.23-.37-.64-.59-1.09-.56l-.81.06-2.04.15-9.36.7h-.11c-.09.02-.19.04-.28.07-.08.02-.17.06-.25.11,0,0,0,.01-.01,0-.07.06-.14.11-.21.18-.06.06-.12.14-.17.22-.2.32-.22.73-.07,1.08l4.72,10.88c.05.11.11.21.18.3.23.26.56.41.9.41.07,0,.13,0,.2-.02l.47-.08,1.25-.21,11.61-1.99c.38-.07.71-.32.87-.68.16-.35.14-.76-.06-1.1ZM6.62,25.06l-3.7-8.51,9.29-.69.65-.05.27.45,4.2,6.96-10.71,1.84Z"/>
  <path class="st1" d="M63.76,48.19c-.11.4-.25.79-.42,1.16-.26.56-.6,1.09-1,1.57-.17.2-.35.39-.54.57-1.32,1.26-3.06,1.97-4.9,1.97h-11.62c-.63,0-1.15-.49-1.18-1.12v-.07l-.07-1.17-.65-11.13c-.39-6.69-4.44-12.49-10.58-15.16l-15.93-6.92-1.86-.81-1.88-.82-.92-.4-1.15-.5c-.41-.17-.66-.54-.7-.95-.02-.2,0-.4.09-.6.03-.07.07-.14.11-.2l2.04-.15,1.29.56.88.38,18.97,8.24c6.96,3.03,11.56,9.61,12,17.19l.65,11.26h10.51c.52,0,1.04-.09,1.53-.25.26-.09.52-.2.77-.34.5-.28.95-.65,1.33-1.1.45-.54.77-1.16.95-1.82.03-.14.06-.27.09-.41.07-.4.09-.81.05-1.23-.01-.13-.02-.26-.05-.4-.04-.21-.02-.41.04-.6.07-.2.2-.37.36-.51.09-.07.18-.14.29-.17.08-.05.17-.07.26-.09h.01c.42-.07.83.09,1.09.4.09.1.16.22.21.35.03.07.05.14.06.21.19,1.04.13,2.08-.13,3.06Z"/>
  <path class="st1" d="M60.65,34.71c-.6,0-1.11-.45-1.17-1.05-1.37-12.69-12.81-21.94-25.52-20.62-.65.07-1.23-.4-1.3-1.05-.07-.65.4-1.23,1.05-1.3,13.99-1.45,26.61,8.73,28.11,22.72.07.65-.4,1.23-1.05,1.3-.04,0-.09,0-.13,0Z"/>
  <path class="st1" d="M31.77,30.47c-1.03-1.05-2.43-1.64-3.89-1.64-3.02,0-5.5,2.53-5.5,5.61s2.48,5.61,5.5,5.61c1.46,0,2.86-.59,3.89-1.64l-3.89-3.97,3.89-3.97Z"/>
  <path class="st1" d="M44.55,39.89c-.41-7.08-4.77-13.34-11.28-16.17L13.96,15.33l5.26,8.76-13.33,2.29,5.46,8.85.77,8.14c.48,5.05,4.72,8.9,9.79,8.9h23.35l-.72-12.38Z"/>
  <path class="st0" d="M27.82,42.38c-4.39,0-7.94-3.56-7.94-7.94s3.55-7.94,7.94-7.94,7.94,3.55,7.94,7.94-3.55,7.94-7.94,7.94Z"/>
  <path class="st1" d="M31.77,30.47c-1.03-1.05-2.43-1.64-3.89-1.64-3.02,0-5.5,2.53-5.5,5.61s2.48,5.61,5.5,5.61c1.46,0,2.86-.59,3.89-1.64l-3.89-3.97,3.89-3.97Z"/>
</svg>