<?xml version="1.0" encoding="UTF-8"?>
<svg id="Layer_1" xmlns="http://www.w3.org/2000/svg" version="1.1" viewBox="0 0 64 64">
  <!-- Generator: Adobe Illustrator 30.3.0, SVG Export Plug-In . SVG Version: 2.1.3 Build 182)  -->
  <defs>
    <style>
      .st0 {
        fill: #f0f;
      }

      .st1, .st2 {
        fill: #6f285e;
      }

      .st2 {
        stroke: #f0f;
        stroke-linecap: round;
        stroke-linejoin: round;
        stroke-width: 2px;
      }
    </style>
  </defs>
  <path class="st2" d="M42.1,51.19"/>
  <g>
    <path class="st1" d="M24.94,22.53h0c6.69-7.78,18.44-8.67,26.23-1.98h0c7.33,6.3,8.17,17.34,1.87,24.67l-.71.82-27.39-23.51Z"/>
    <path class="st0" d="M52.33,47.17c-.26,0-.52-.09-.73-.27l-27.38-23.51c-.23-.19-.37-.47-.39-.77s.07-.59.27-.82c7.09-8.24,19.56-9.18,27.81-2.1,3.78,3.24,6.06,7.76,6.44,12.72.37,4.96-1.21,9.77-4.45,13.54l-.71.82c-.22.26-.54.39-.85.39ZM26.56,22.43l25.65,22.02c2.83-3.31,4.21-7.52,3.89-11.87-.33-4.36-2.34-8.33-5.66-11.18-7.02-6.03-17.5-5.49-23.88,1.03Z"/>
  </g>
  <path class="st1" d="M41.51,51.19v-22.65l16.45,14.12.71-.82c2.83-3.3,4.23-7.36,4.23-11.39,0-4.92-2.07-9.81-6.1-13.27-5.66-4.86-13.4-5.71-19.78-2.84-4.77,2.15-10.01,3.04-15.24,3.04H1.11c0,3.06.49,6.01,1.43,8.75.81,2.43,1.95,4.71,3.37,6.79l5.03,5.56c3.43,2.89,7.57,4.96,12.12,5.91.26.05.51.12.76.2,1.38.45,2.29,1.42,2.72,2.58,1.19,3.21,4.02,5.51,7.44,5.5l7.53-1.49Z"/>
  <path class="st0" d="M33.89,22.35c-.98-1-2.32-1.57-3.71-1.57-2.87,0-5.24,2.41-5.24,5.35s2.37,5.35,5.24,5.35c1.39,0,2.72-.56,3.71-1.57l-3.71-3.78,3.71-3.78Z"/>
  <path class="st0" d="M9.99,17.38c0,4.42-3.22,8.07-7.45,8.75-.93-2.74-1.43-5.7-1.43-8.75h8.88Z"/>
  <circle class="st1" cx="29.41" cy="32.61" r="5.29"/>
  <path class="st0" d="M41.51,52.3c-.61,0-1.11-.5-1.11-1.11v-22.65c0-.43.25-.83.65-1.01.39-.18.86-.12,1.19.17l15.61,13.4c2.54-2.97,3.94-6.76,3.94-10.65,0-4.78-2.08-9.31-5.71-12.43-5.13-4.4-12.43-5.45-18.6-2.67-.56.25-1.22,0-1.47-.56-.25-.56,0-1.22.56-1.47,6.95-3.14,15.18-1.96,20.96,3.01,4.12,3.54,6.48,8.68,6.48,14.11,0,4.43-1.6,8.74-4.5,12.12l-.71.82c-.4.46-1.1.51-1.56.12l-14.61-12.55v20.24c0,.61-.5,1.11-1.11,1.11Z"/>
  <path class="st0" d="M33.96,53.8c-3.74,0-7.07-2.44-8.47-6.23-.34-.92-1.06-1.6-2.02-1.91-.21-.07-.42-.12-.64-.17-.6-.12-.99-.71-.86-1.31.12-.6.71-.99,1.31-.86.3.06.59.14.88.23,1.62.52,2.84,1.68,3.42,3.26,1.07,2.9,3.58,4.78,6.39,4.78,0,0,0,0,0,0,.61,0,1.11.5,1.11,1.11,0,.62-.46,1.11-1.12,1.11Z"/>
  <path class="st0" d="M10.93,39.6c-.3,0-.6-.12-.82-.37l-5.03-5.56s-.06-.08-.09-.12c-1.49-2.19-2.67-4.56-3.5-7.06-.99-2.89-1.49-5.96-1.49-9.1,0-.61.5-1.11,1.11-1.11h20.66c.61,0,1.11.5,1.11,1.11s-.5,1.11-1.11,1.11H2.24c.1,2.51.55,4.96,1.35,7.29.76,2.29,1.84,4.46,3.19,6.46l4.98,5.51c.41.45.38,1.16-.08,1.57-.21.19-.48.29-.74.29Z"/>
</svg>