<?xml version="1.0" encoding="UTF-8"?>
<svg id="Layer_1" xmlns="http://www.w3.org/2000/svg" version="1.1" viewBox="0 0 64 64">
  <!-- Generator: Adobe Illustrator 30.3.0, SVG Export Plug-In . SVG Version: 2.1.3 Build 182)  -->
  <defs>
    <style>
      .st0 {
        fill: #8d8a07;
      }

      .st1 {
        fill: #ff0;
      }
    </style>
  </defs>
  <path class="st0" d="M62.6,31.52c-.41-3.52-1.63-6.64-3.41-9.27.19-.19.34-.43.41-.73,1.22-5.06-.34-10.38-4.09-13.99-.86-.82-2.28-.41-2.56.75l-1.68,6.99c-7.28-3.74-16.67-3.48-23.94,2.34l-2.63,2.11-12.74-7.11,4.27,13.9L1.23,9.34v25.65c0,4.47,2.93,10.32,5.84,15.03,3.12,5.04,9.01,7.66,14.86,6.68l12-2.01,10.97,1.68c7.52,1.15,14.69-3.64,16.48-11.03.81-3.34,1.4-6.96,1.4-10.33v-.54c0-.99-.06-1.97-.17-2.93Z"/>
  <path class="st1" d="M33.38,29.99l-11.15,4.46c-.01.09-.01.18-.01.27,0,3.66,2.96,6.67,6.54,6.67,1.74,0,3.4-.7,4.62-1.95l-4.62-4.72,4.62-4.73Z"/>
  <path class="st1" d="M19.45,58.13c-5.43,0-10.51-2.76-13.42-7.46-4-6.46-6.02-11.74-6.02-15.67V9.34c0-.51.32-.97.8-1.15.48-.18,1.02-.04,1.35.34l11.22,12.84-2.58-8.4c-.15-.48.01-1,.4-1.31.39-.32.93-.36,1.37-.12l12.02,6.71,1.99-1.59c7.14-5.72,17.06-6.69,25.26-2.48.6.31.84,1.05.53,1.65-.31.6-1.04.84-1.65.53-7.35-3.77-16.22-2.91-22.61,2.21l-2.63,2.11c-.39.31-.93.36-1.36.11l-10.08-5.62,3.37,10.98c.17.55-.07,1.15-.58,1.43-.51.28-1.14.17-1.52-.27L2.45,12.61v22.38c0,3.42,1.96,8.4,5.66,14.38,2.86,4.62,8.2,7.01,13.61,6.11l12-2.01c.66-.12,1.3.34,1.41,1.01.11.67-.34,1.3-1.01,1.41l-12,2.01c-.9.15-1.79.22-2.68.22Z"/>
  <path class="st1" d="M47.18,57.77c-.82,0-1.64-.06-2.47-.19-.67-.1-1.13-.73-1.03-1.4.1-.67.72-1.13,1.4-1.03,6.85,1.05,13.48-3.39,15.1-10.11.91-3.76,1.37-7.14,1.37-10.05v-.55c0-.93-.05-1.87-.16-2.79-.37-3.19-1.45-6.13-3.21-8.73-.33-.49-.27-1.14.15-1.55.04-.04.07-.09.08-.15,1.11-4.62-.32-9.53-3.75-12.82-.11-.1-.22-.1-.3-.07-.08.02-.18.08-.21.23-.16.66-.82,1.06-1.48.91-.66-.16-1.06-.82-.91-1.48.23-.98.95-1.73,1.91-2.01.96-.28,1.97-.04,2.69.66,4.05,3.89,5.74,9.7,4.43,15.16-.04.15-.08.29-.14.43,1.72,2.76,2.79,5.83,3.17,9.14.12,1.01.18,2.05.18,3.07v.55c0,3.1-.48,6.67-1.44,10.62-1.75,7.26-8.13,12.15-15.38,12.15Z"/>
</svg>