<?xml version="1.0" encoding="UTF-8"?>
<svg id="Layer_1" xmlns="http://www.w3.org/2000/svg" version="1.1" viewBox="0 0 64 64">
  <!-- Generator: Adobe Illustrator 30.3.0, SVG Export Plug-In . SVG Version: 2.1.3 Build 182)  -->
  <defs>
    <style>
      .st0 {
        fill: #174902;
      }

      .st1 {
        fill: lime;
      }
    </style>
  </defs>
  <g>
    <g>
      <path class="st0" d="M58.28,39.86h0s.01-.08.01-.08c0,0,0,0,0,0L62.36,3.86l-4.87,3.88c-6.42,5.12-15.07,7.14-23.59,6.02-.73-.1-1.43-.15-2.06-.15s-1.33.05-2.06.15c-8.52,1.12-17.17-.91-23.59-6.02L1.32,3.86l4.06,35.91s0,0,0,0v.09s.01,0,.01,0c1.41,11.93,12.71,21.22,26.44,21.22,9.91,0,18.55-4.84,23.12-12.01"/>
      <path class="st1" d="M31.84,62.57c-14.35,0-26.32-9.62-27.9-22.41,0-.04-.01-.08-.02-.12,0-.01,0-.04,0-.06,0-.02,0-.03,0-.05L-.15,4.02c-.07-.6.23-1.17.76-1.46.52-.29,1.17-.24,1.64.14l4.87,3.88c5.93,4.73,14.12,6.81,22.47,5.71,1.64-.22,2.87-.22,4.51,0,8.35,1.1,16.54-.99,22.47-5.71l4.87-3.88c.47-.37,1.12-.43,1.64-.14.52.29.82.87.76,1.46l-4.06,35.91s-.01.08-.02.11c-.11.59-.56,1.09-1.14,1.22-.63.14-1.27-.09-1.59-.64-.19-.32-.25-.69-.19-1.03h0l3.66-32.36-2.07,1.65c-6.56,5.22-15.57,7.53-24.7,6.33-1.39-.18-2.35-.18-3.74,0-9.14,1.2-18.15-1.11-24.7-6.33l-2.07-1.65,3.65,32.34s.01.07.02.11c1.34,11.35,12.08,19.92,24.97,19.92,9.04,0,17.42-4.34,21.87-11.33.44-.69,1.35-.89,2.05-.45.69.44.89,1.36.45,2.05-4.99,7.83-14.33,12.7-24.37,12.7Z"/>
    </g>
    <ellipse class="st1" cx="42.71" cy="35.26" rx="9.38" ry="8.37"/>
    <path class="st1" d="M51.55,36.74H10.35c-.46,0-.9-.21-1.18-.58l-6.42-8.37c-.5-.65-.38-1.58.27-2.08.65-.5,1.58-.38,2.08.27l5.98,7.79h39.85l7.77-7.93c.57-.59,1.51-.59,2.1-.02.58.57.59,1.51.02,2.1l-8.21,8.37c-.28.28-.66.44-1.06.44Z"/>
    <path class="st1" d="M62.36,3.86c-9.76,10.68-20.68,21.09-31.3,30.97-.59.55-1.51.52-2.06-.06C19.45,24.75,10.06,14.61,1.32,3.86c10.4,9.15,20.16,18.94,29.8,28.87,0,0-2.06-.06-2.06-.06,10.67-9.83,21.89-19.9,33.3-28.81h0Z"/>
    <g>
      <polyline class="st0" points="18.96 17.46 27.74 2.82 27.74 14.69 34.44 4.09 34.44 16.6 41.27 4.73 42.71 17.46"/>
      <path class="st1" d="M18.96,17.46c2.38-4.99,5.24-10.31,7.88-15.18.46-.92,1.94-.56,1.94.45.15,3.99.27,7.97.33,11.96,0,0-2.53-.73-2.53-.73,1.86-3.11,4.68-7.53,6.62-10.65.73-1.26,2.78-.64,2.72.79-.03,4.17-.04,8.34-.15,12.51l-2.48-.66c2.35-3.92,4.76-7.79,7.23-11.64.23-.44.8-.6,1.22-.32.23.15.37.4.39.66.28,4.27.5,8.54.58,12.83-.88-4.2-1.61-8.41-2.29-12.64l1.6.33c-2.08,4.07-4.22,8.1-6.43,12.1-.6,1.17-2.49.69-2.48-.6-.11-4.19-.12-8.38-.15-12.57,0,0,2.72.79,2.72.79l-3.38,5.28c-1.14,1.77-2.27,3.56-3.45,5.31-.42.63-1.27.79-1.9.37-.4-.27-.61-.71-.61-1.16.06-3.96.17-7.91.33-11.87l1.95.54c-3.05,4.63-6.4,9.65-9.67,14.1h0Z"/>
    </g>
    <ellipse class="st1" cx="18.96" cy="35.26" rx="9.38" ry="8.37"/>
    <g>
      <path class="st1" d="M37.96,42.74c0,3.51-7.12,10.21-7.12,10.21,0,0-7.12-6.69-7.12-10.21s3.19-6.36,7.12-6.36,7.12,2.85,7.12,6.36Z"/>
      <path class="st0" d="M30.84,54.43c-.36,0-.73-.13-1.02-.4-1.27-1.19-7.59-7.33-7.59-11.29,0-4.32,3.86-7.84,8.6-7.84s8.6,3.52,8.6,7.84c0,3.95-6.32,10.09-7.59,11.29-.29.27-.65.4-1.02.4ZM30.84,37.87c-3.11,0-5.64,2.19-5.64,4.87,0,1.74,3.03,5.49,5.64,8.13,2.61-2.64,5.64-6.39,5.64-8.13,0-2.69-2.53-4.87-5.64-4.87Z"/>
    </g>
    <rect class="st1" x="32.14" y="31.69" width="3.13" height="2.79"/>
  </g>
  <g>
    <path class="st0" d="M19.68,35.42l4.88,4.99c-1.29,1.32-3.05,2.07-4.88,2.07-3.79,0-6.9-3.18-6.9-7.05s3.12-7.05,6.9-7.05c1.83,0,3.59.74,4.88,2.07l-4.88,4.99Z"/>
    <path class="st0" d="M48.87,30.43c-1.29-1.32-3.05-2.07-4.88-2.07-3.79,0-6.9,3.18-6.9,7.05s3.12,7.05,6.9,7.05c1.83,0,3.59-.74,4.88-2.07l-4.88-4.99,4.88-4.99Z"/>
  </g>
</svg>