<?xml version="1.0" encoding="UTF-8"?>
<svg id="Layer_1" xmlns="http://www.w3.org/2000/svg" version="1.1" viewBox="0 0 64 64">
  <!-- Generator: Adobe Illustrator 30.3.0, SVG Export Plug-In . SVG Version: 2.1.3 Build 182)  -->
  <defs>
    <style>
      .st0 {
        fill: #231f20;
      }

      .st1 {
        fill: #fff;
      }
    </style>
  </defs>
  <ellipse class="st0" cx="32" cy="32" rx="30.12" ry="30.12"/>
  <path class="st1" d="M32,63.99C14.36,63.99,0,49.64,0,32S14.36,0,32,0s32,14.36,32,32c0,3.8-.66,7.53-1.96,11.06-.36.98-1.44,1.47-2.42,1.12-.98-.36-1.48-1.44-1.12-2.42,1.15-3.12,1.73-6.4,1.73-9.76,0-15.57-12.67-28.24-28.23-28.24S3.76,16.43,3.76,32s12.67,28.24,28.24,28.24c6.24,0,12.15-1.99,17.1-5.76.83-.63,2.01-.47,2.64.36s.47,2.01-.36,2.64c-5.61,4.27-12.31,6.53-19.38,6.53h0v-.02Z"/>
</svg>