<?xml version="1.0" encoding="UTF-8"?>
<svg id="Layer_1" xmlns="http://www.w3.org/2000/svg" version="1.1" viewBox="0 0 32 64">
  <!-- Generator: Adobe Illustrator 30.3.0, SVG Export Plug-In . SVG Version: 2.1.3 Build 182)  -->
  <defs>
    <style>
      .st0 {
        fill: #3e7a85;
      }

      .st1 {
        fill: aqua;
      }
    </style>
  </defs>
  <polygon class="st0" points="16 62.19 30.23 44.32 16 1.96 1.78 44.32 16 62.19"/>
  <path class="st1" d="M16,64.07c-.53,0-1.02-.24-1.36-.67L.42,45.53c-.41-.51-.53-1.21-.31-1.84l4.23-12.61c.33-.98,1.34-1.49,2.27-1.14s1.41,1.42,1.08,2.4l-3.89,11.59,12.2,15.34,12.2-15.34L16,7.58l-1.54,4.58c-.33.98-1.34,1.49-2.27,1.14-.93-.35-1.41-1.42-1.08-2.4L14.33,1.33c.26-.75.93-1.25,1.67-1.25s1.43.5,1.67,1.25l14.22,42.37c.21.63.09,1.33-.31,1.84l-14.22,17.87c-.34.42-.83.67-1.36.67h0Z"/>
</svg>