<?xml version="1.0" encoding="UTF-8"?>
<svg id="Layer_1" xmlns="http://www.w3.org/2000/svg" version="1.1" viewBox="0 0 32 64">
  <!-- Generator: Adobe Illustrator 30.3.0, SVG Export Plug-In . SVG Version: 2.1.3 Build 182)  -->
  <defs>
    <style>
      .st0 {
        fill: lime;
      }

      .st1 {
        fill: #347125;
      }
    </style>
  </defs>
  <polygon class="st1" points="15.72 62.19 29.94 44.32 15.72 1.96 1.5 44.32 15.72 62.19"/>
  <path class="st0" d="M15.72,64.07c-.53,0-1.02-.24-1.36-.67L.14,45.53c-.41-.51-.53-1.21-.31-1.84l4.23-12.61c.33-.98,1.34-1.49,2.27-1.14s1.41,1.42,1.08,2.4l-3.89,11.59,12.2,15.34,12.2-15.34L15.72,7.58l-1.54,4.58c-.33.98-1.34,1.49-2.27,1.14-.93-.35-1.41-1.42-1.08-2.4L14.05,1.33c.26-.75.93-1.25,1.67-1.25s1.43.5,1.67,1.25l14.22,42.37c.21.63.09,1.33-.31,1.84l-14.22,17.87c-.34.42-.83.67-1.36.67h0Z"/>
</svg>